<svg width="36" height="32" viewBox="0 0 36 32" fill="none" xmlns="http://www.w3.org/2000/svg">
<g clip-path="url(#clip0_4_385)">
<path d="M10.5119 0H6.12962C2.90262 0 0.286621 2.38781 0.286621 5.33333V9.33333C0.286621 12.2789 2.90262 14.6667 6.12962 14.6667H10.5119C13.7389 14.6667 16.3549 12.2789 16.3549 9.33333V5.33333C16.3549 2.38781 13.7389 0 10.5119 0Z" fill="#007BFF"/>
<path d="M29.5014 0H25.1191C21.8921 0 19.2761 2.38782 19.2761 5.33334V9.33334C19.2761 12.2789 21.8921 14.6667 25.1191 14.6667H29.5014C32.7284 14.6667 35.3444 12.2789 35.3444 9.33334V5.33334C35.3444 2.38782 32.7284 0 29.5014 0Z" fill="#007BFF"/>
<path d="M10.5119 17.3334H6.12962C2.90262 17.3334 0.286621 19.7212 0.286621 22.6667V26.6667C0.286621 29.6122 2.90262 32.0001 6.12962 32.0001H10.5119C13.7389 32.0001 16.3549 29.6122 16.3549 26.6667V22.6667C16.3549 19.7212 13.7389 17.3334 10.5119 17.3334Z" fill="#007BFF"/>
<path d="M29.5014 17.3334H25.1191C21.8921 17.3334 19.2761 19.7212 19.2761 22.6667V26.6667C19.2761 29.6122 21.8921 32.0001 25.1191 32.0001H29.5014C32.7284 32.0001 35.3444 29.6122 35.3444 26.6667V22.6667C35.3444 19.7212 32.7284 17.3334 29.5014 17.3334Z" fill="#007BFF"/>
</g>
<defs>
<clipPath id="clip0_4_385">
<rect width="35.058" height="32" fill="white" transform="translate(0.286621)"/>
</clipPath>
</defs>
</svg>
