<svg width="32" height="32" viewBox="0 0 32 32" fill="none" xmlns="http://www.w3.org/2000/svg">
<g clip-path="url(#clip0_4_614)">
<path d="M30.8265 13.2133L25.6665 8.00001C25.5426 7.87504 25.3951 7.77585 25.2326 7.70816C25.0701 7.64047 24.8959 7.60561 24.7199 7.60561C24.5438 7.60561 24.3696 7.64047 24.2071 7.70816C24.0446 7.77585 23.8971 7.87504 23.7732 8.00001C23.6482 8.12396 23.549 8.27143 23.4813 8.43391C23.4136 8.59639 23.3788 8.77066 23.3788 8.94668C23.3788 9.12269 23.4136 9.29697 23.4813 9.45945C23.549 9.62193 23.6482 9.76939 23.7732 9.89335L28.5199 14.6667H1.33319C0.97957 14.6667 0.64043 14.8072 0.390383 15.0572C0.140335 15.3073 -0.000141144 15.6464 -0.000141144 16C-0.000141144 16.3536 0.140335 16.6928 0.390383 16.9428C0.64043 17.1929 0.97957 17.3333 1.33319 17.3333H28.5999L23.7732 22.16C23.5368 22.408 23.4049 22.7374 23.4049 23.08C23.4049 23.4226 23.5368 23.752 23.7732 24C23.8971 24.125 24.0446 24.2242 24.2071 24.2919C24.3696 24.3596 24.5438 24.3944 24.7199 24.3944C24.8959 24.3944 25.0701 24.3596 25.2326 24.2919C25.3951 24.2242 25.5426 24.125 25.6665 24L30.8265 18.8667C31.5756 18.1167 31.9963 17.1 31.9963 16.04C31.9963 14.98 31.5756 13.9633 30.8265 13.2133Z" fill="#666666"/>
</g>
<defs>
<clipPath id="clip0_4_614">
<rect width="32" height="32" fill="white" transform="matrix(-1 0 0 -1 32 32)"/>
</clipPath>
</defs>
</svg>
