<svg width="43" height="32" viewBox="0 0 43 32" fill="none" xmlns="http://www.w3.org/2000/svg">
<path d="M22.1688 11.715H10.5011L14.3398 8.21116C14.4491 8.11215 14.5359 7.99436 14.5952 7.86458C14.6544 7.7348 14.6849 7.5956 14.6849 7.45501C14.6849 7.31441 14.6544 7.17521 14.5952 7.04543C14.5359 6.91565 14.4491 6.79786 14.3398 6.69885C14.1212 6.5005 13.8254 6.38916 13.5172 6.38916C13.2089 6.38916 12.9132 6.5005 12.6946 6.69885L7.68913 11.2784C7.2509 11.676 7.00334 12.216 7.00073 12.78C7.00641 13.3403 7.25374 13.876 7.68913 14.271L12.6946 18.8505C12.8034 18.9491 12.9324 19.0272 13.0742 19.0803C13.2161 19.1334 13.368 19.1605 13.5213 19.16C13.6746 19.1595 13.8263 19.1314 13.9678 19.0774C14.1092 19.0234 14.2376 18.9445 14.3456 18.8452C14.4536 18.7459 14.5392 18.6281 14.5973 18.4987C14.6555 18.3692 14.6852 18.2305 14.6846 18.0906C14.6841 17.9507 14.6533 17.8122 14.5942 17.6831C14.535 17.554 14.4486 17.4368 14.3398 17.3382L10.5011 13.845H22.1688C22.4783 13.845 22.7751 13.7328 22.9939 13.5331C23.2127 13.3334 23.3356 13.0625 23.3356 12.78C23.3356 12.4976 23.2127 12.2267 22.9939 12.0269C22.7751 11.8272 22.4783 11.715 22.1688 11.715Z" fill="#555555"/>
<path d="M35.2446 18.78C35.2389 18.2197 34.9915 17.684 34.5562 17.289L29.5507 12.7095C29.3321 12.5111 29.0363 12.3998 28.7281 12.3998C28.4199 12.3998 28.1241 12.5111 27.9055 12.7095C27.7962 12.8085 27.7094 12.9263 27.6501 13.0561C27.5909 13.1858 27.5604 13.325 27.5604 13.4656C27.5604 13.6062 27.5909 13.7454 27.6501 13.8752C27.7094 14.005 27.7962 14.1228 27.9055 14.2218L31.7442 17.715H20.0764C19.767 17.715 19.4702 17.8272 19.2514 18.0269C19.0326 18.2266 18.9097 18.4975 18.9097 18.78C18.9097 19.0624 19.0326 19.3333 19.2514 19.5331C19.4702 19.7328 19.767 19.845 20.0764 19.845H31.7442L27.9055 23.3488C27.6858 23.548 27.5618 23.8186 27.5607 24.1012C27.5596 24.3838 27.6815 24.6553 27.8997 24.8558C28.1179 25.0564 28.4144 25.1696 28.724 25.1706C29.0336 25.1716 29.331 25.0603 29.5507 24.8611L34.5562 20.2816C34.9944 19.884 35.2419 19.344 35.2446 18.78Z" fill="#555555"/>
</svg>
