<svg width="36" height="32" viewBox="0 0 36 32" fill="none" xmlns="http://www.w3.org/2000/svg">
<g clip-path="url(#clip0_4_405)">
<path d="M17.8155 15.9999C19.549 15.9999 21.2435 15.5307 22.6848 14.6516C24.1261 13.7726 25.2495 12.5232 25.9129 11.0613C26.5762 9.59954 26.7498 7.99101 26.4116 6.43916C26.0735 4.88731 25.2387 3.46185 24.013 2.34303C22.7872 1.22421 21.2255 0.462281 19.5254 0.153599C17.8253 -0.155082 16.063 0.00334422 14.4615 0.608845C12.86 1.21435 11.4912 2.23973 10.5281 3.55532C9.56505 4.87091 9.05103 6.41763 9.05103 7.99988C9.05335 10.121 9.97749 12.1546 11.6207 13.6544C13.2638 15.1542 15.4918 15.9978 17.8155 15.9999ZM17.8155 2.66655C18.9712 2.66655 20.1009 2.97934 21.0617 3.56538C22.0226 4.15141 22.7715 4.98436 23.2138 5.9589C23.656 6.93344 23.7717 8.0058 23.5463 9.04036C23.3208 10.0749 22.7643 11.0252 21.9472 11.7711C21.13 12.517 20.0889 13.025 18.9554 13.2307C17.822 13.4365 16.6472 13.3309 15.5795 12.9272C14.5118 12.5236 13.5993 11.84 12.9573 10.9629C12.3152 10.0859 11.9725 9.05472 11.9725 7.99988C11.9725 6.58539 12.5881 5.22884 13.6839 4.22865C14.7797 3.22845 16.2659 2.66655 17.8155 2.66655Z" fill="#555555"/>
<path d="M17.8157 18.6675C14.3302 18.671 10.9885 19.9364 8.52381 22.1861C6.05915 24.4358 4.67281 27.486 4.66895 30.6675C4.66895 31.0211 4.82285 31.3602 5.09679 31.6103C5.37073 31.8603 5.74228 32.0008 6.1297 32.0008C6.51711 32.0008 6.88866 31.8603 7.1626 31.6103C7.43655 31.3602 7.59045 31.0211 7.59045 30.6675C7.59045 28.1921 8.66775 25.8182 10.5854 24.0678C12.503 22.3175 15.1038 21.3341 17.8157 21.3341C20.5276 21.3341 23.1284 22.3175 25.0461 24.0678C26.9637 25.8182 28.041 28.1921 28.041 30.6675C28.041 31.0211 28.1949 31.3602 28.4688 31.6103C28.7427 31.8603 29.1143 32.0008 29.5017 32.0008C29.8891 32.0008 30.2607 31.8603 30.5346 31.6103C30.8086 31.3602 30.9625 31.0211 30.9625 30.6675C30.9586 27.486 29.5723 24.4358 27.1076 22.1861C24.6429 19.9364 21.3013 18.671 17.8157 18.6675Z" fill="#555555"/>
</g>
<defs>
<clipPath id="clip0_4_405">
<rect width="35.058" height="32" fill="white" transform="translate(0.286621)"/>
</clipPath>
</defs>
</svg>
