<svg width="36" height="32" viewBox="0 0 36 32" fill="none" xmlns="http://www.w3.org/2000/svg">
<g clip-path="url(#clip0_4_389)">
<path d="M8.32076 22.6669C9.53089 22.6669 10.5119 21.7714 10.5119 20.6669C10.5119 19.5623 9.53089 18.6669 8.32076 18.6669C7.11064 18.6669 6.12964 19.5623 6.12964 20.6669C6.12964 21.7714 7.11064 22.6669 8.32076 22.6669Z" fill="#555555"/>
<path d="M28.0409 4H7.59038C5.65401 4.00212 3.79762 4.70518 2.4284 5.95496C1.05919 7.20474 0.288941 8.89921 0.286621 10.6667L0.286621 21.3333C0.288941 23.1008 1.05919 24.7953 2.4284 26.045C3.79762 27.2948 5.65401 27.9979 7.59038 28H28.0409C29.9773 27.9979 31.8336 27.2948 33.2029 26.045C34.5721 24.7953 35.3423 23.1008 35.3446 21.3333V10.6667C35.3423 8.89921 34.5721 7.20474 33.2029 5.95496C31.8336 4.70518 29.9773 4.00212 28.0409 4ZM7.59038 6.66667H28.0409C29.2031 6.66667 30.3178 7.08809 31.1396 7.83824C31.9614 8.58839 32.4231 9.6058 32.4231 10.6667H3.20812C3.20812 9.6058 3.66982 8.58839 4.49166 7.83824C5.31349 7.08809 6.42813 6.66667 7.59038 6.66667ZM28.0409 25.3333H7.59038C6.42813 25.3333 5.31349 24.9119 4.49166 24.1618C3.66982 23.4116 3.20812 22.3942 3.20812 21.3333V13.3333H32.4231V21.3333C32.4231 22.3942 31.9614 23.4116 31.1396 24.1618C30.3178 24.9119 29.2031 25.3333 28.0409 25.3333Z" fill="#555555"/>
</g>
<defs>
<clipPath id="clip0_4_389">
<rect width="35.058" height="32" fill="white" transform="translate(0.286621)"/>
</clipPath>
</defs>
</svg>
