<svg width="27" height="27" viewBox="0 0 27 27" fill="none" xmlns="http://www.w3.org/2000/svg">
<path d="M20.0375 13.4009C20.0321 12.815 19.7964 12.2548 19.3813 11.8418L14.6097 7.05297C14.4013 6.84555 14.1194 6.72913 13.8255 6.72913C13.5317 6.72913 13.2498 6.84555 13.0414 7.05297C12.9371 7.1565 12.8544 7.27968 12.7979 7.41539C12.7415 7.5511 12.7124 7.69666 12.7124 7.84368C12.7124 7.9907 12.7415 8.13626 12.7979 8.27197C12.8544 8.40768 12.9371 8.53085 13.0414 8.63438L16.7007 12.2872H5.57809C5.2831 12.2872 5.00019 12.4046 4.7916 12.6134C4.58301 12.8223 4.46582 13.1055 4.46582 13.4009C4.46582 13.6963 4.58301 13.9795 4.7916 14.1884C5.00019 14.3972 5.2831 14.5146 5.57809 14.5146H16.7007L13.0414 18.1785C12.8319 18.3868 12.7137 18.6698 12.7127 18.9653C12.7116 19.2608 12.8279 19.5447 13.0358 19.7544C13.2438 19.9641 13.5265 20.0825 13.8216 20.0835C14.1168 20.0846 14.4002 19.9682 14.6097 19.7599L19.3813 14.9712C19.7991 14.5554 20.0351 13.9907 20.0375 13.4009V13.4009Z" fill="#D4F3E7"/>
</svg>
