<svg width="12" height="12" viewBox="0 0 12 12" fill="none" xmlns="http://www.w3.org/2000/svg">
<g clip-path="url(#clip0_4_927)">
<path d="M7.04495 11.5599L8.99995 9.62486C9.04681 9.57837 9.08401 9.52307 9.1094 9.46214C9.13478 9.40121 9.14785 9.33586 9.14785 9.26986C9.14785 9.20385 9.13478 9.1385 9.1094 9.07757C9.08401 9.01664 9.04681 8.96134 8.99995 8.91486C8.95347 8.86799 8.89817 8.83079 8.83724 8.80541C8.77631 8.78003 8.71096 8.76696 8.64495 8.76696C8.57894 8.76696 8.51359 8.78003 8.45266 8.80541C8.39173 8.83079 8.33643 8.86799 8.28995 8.91486L6.49995 10.6949V0.499855C6.49995 0.367247 6.44727 0.240069 6.3535 0.146301C6.25974 0.0525331 6.13256 -0.000144958 5.99995 -0.000144958C5.86734 -0.000144958 5.74016 0.0525331 5.6464 0.146301C5.55263 0.240069 5.49995 0.367247 5.49995 0.499855V10.7249L3.68995 8.91486C3.59696 8.82621 3.47342 8.77676 3.34495 8.77676C3.21648 8.77676 3.09294 8.82621 2.99995 8.91486C2.95309 8.96134 2.91589 9.01664 2.8905 9.07757C2.86512 9.1385 2.85205 9.20385 2.85205 9.26986C2.85205 9.33586 2.86512 9.40121 2.8905 9.46214C2.91589 9.52307 2.95309 9.57837 2.99995 9.62486L4.92495 11.5599C5.2062 11.8408 5.58745 11.9985 5.98495 11.9985C6.38245 11.9985 6.7637 11.8408 7.04495 11.5599V11.5599Z" fill="#333333"/>
</g>
<defs>
<clipPath id="clip0_4_927">
<rect width="12" height="12" fill="white" transform="matrix(0 -1 1 0 0 12)"/>
</clipPath>
</defs>
</svg>
