<svg width="314" height="60" viewBox="0 0 314 60" fill="none" xmlns="http://www.w3.org/2000/svg">
<path d="M9.84375 7.5V53H0.6875V7.5H9.84375ZM32.4375 7.5L17.6875 30.0938L8.65625 41.3438L6.90625 32.1875L12.75 22.4375L21.3125 7.5H32.4375ZM21.875 53L11.9375 32.0938L18.6562 26.1562L32.6562 53H21.875ZM50.5938 45.2188V29.5938C50.5938 28.5729 50.4688 27.7604 50.2188 27.1562C49.9896 26.5521 49.6354 26.1146 49.1562 25.8438C48.6979 25.5521 48.1354 25.4062 47.4688 25.4062C46.7188 25.4062 46.0938 25.5625 45.5938 25.875C45.0938 26.1875 44.7188 26.6354 44.4688 27.2188C44.2396 27.8021 44.125 28.5 44.125 29.3125H35.3438C35.3438 27.8542 35.625 26.4792 36.1875 25.1875C36.75 23.875 37.5729 22.7292 38.6562 21.75C39.7604 20.75 41.0729 19.9688 42.5938 19.4062C44.1146 18.8438 45.8229 18.5625 47.7188 18.5625C49.9688 18.5625 51.9688 18.9479 53.7188 19.7188C55.4688 20.4688 56.8542 21.6667 57.875 23.3125C58.8958 24.9583 59.4062 27.0938 59.4062 29.7188V44.7812C59.4062 46.6771 59.5 48.2188 59.6875 49.4062C59.8958 50.5938 60.1979 51.6146 60.5938 52.4688V53H51.7812C51.3854 52.0625 51.0833 50.8958 50.875 49.5C50.6875 48.0833 50.5938 46.6562 50.5938 45.2188ZM51.6562 32.3438L51.6875 37.5938H48.4688C47.6354 37.5938 46.9062 37.7292 46.2812 38C45.6771 38.2708 45.1667 38.6562 44.75 39.1562C44.3333 39.6354 44.0208 40.1979 43.8125 40.8438C43.625 41.4896 43.5312 42.1771 43.5312 42.9062C43.5312 43.7188 43.6458 44.4062 43.875 44.9688C44.1042 45.5312 44.4479 45.9583 44.9062 46.25C45.3646 46.5417 45.9062 46.6875 46.5312 46.6875C47.4896 46.6875 48.3229 46.4896 49.0312 46.0938C49.7396 45.6979 50.2604 45.2188 50.5938 44.6562C50.9479 44.0938 51.0625 43.5729 50.9375 43.0938L52.9375 46.5C52.6875 47.2708 52.3438 48.0729 51.9062 48.9062C51.4896 49.7396 50.9583 50.5104 50.3125 51.2188C49.6667 51.9271 48.8646 52.5104 47.9062 52.9688C46.9688 53.4062 45.8542 53.625 44.5625 53.625C42.75 53.625 41.0938 53.2083 39.5938 52.375C38.0938 51.5417 36.9062 50.375 36.0312 48.875C35.1771 47.375 34.75 45.5938 34.75 43.5312C34.75 41.8229 35.0208 40.2812 35.5625 38.9062C36.125 37.5104 36.9583 36.3333 38.0625 35.375C39.1667 34.3958 40.5625 33.6458 42.25 33.125C43.9375 32.6042 45.9167 32.3438 48.1875 32.3438H51.6562ZM80.875 43.875C80.875 43.2917 80.6771 42.7708 80.2812 42.3125C79.8854 41.8542 79.2604 41.3854 78.4062 40.9062C77.5521 40.4062 76.4167 39.8542 75 39.25C73.4583 38.625 72.0938 37.9792 70.9062 37.3125C69.7188 36.6458 68.7083 35.9062 67.875 35.0938C67.0625 34.2812 66.4479 33.3542 66.0312 32.3125C65.6146 31.2708 65.4062 30.0833 65.4062 28.75C65.4062 27.3125 65.6667 25.9896 66.1875 24.7812C66.7292 23.5521 67.5 22.4792 68.5 21.5625C69.5 20.625 70.7188 19.8958 72.1562 19.375C73.6146 18.8333 75.25 18.5625 77.0625 18.5625C79.6042 18.5625 81.7812 19.0104 83.5938 19.9062C85.4271 20.7812 86.8333 22.0104 87.8125 23.5938C88.7917 25.1771 89.2812 27.0208 89.2812 29.125H80.5312C80.5312 28.375 80.4167 27.7083 80.1875 27.125C79.9583 26.5208 79.5833 26.0521 79.0625 25.7188C78.5625 25.3854 77.8854 25.2188 77.0312 25.2188C76.4062 25.2188 75.8438 25.3542 75.3438 25.625C74.8646 25.8958 74.4792 26.2604 74.1875 26.7188C73.9167 27.1562 73.7812 27.6771 73.7812 28.2812C73.7812 28.7396 73.875 29.1458 74.0625 29.5C74.2708 29.8542 74.5938 30.1979 75.0312 30.5312C75.4688 30.8646 76.0521 31.2188 76.7812 31.5938C77.5312 31.9479 78.4479 32.3438 79.5312 32.7812C81.7812 33.6146 83.625 34.5104 85.0625 35.4688C86.5208 36.4271 87.6042 37.5521 88.3125 38.8438C89.0208 40.1146 89.375 41.6875 89.375 43.5625C89.375 45.0625 89.0833 46.4271 88.5 47.6562C87.9375 48.8854 87.1146 49.9479 86.0312 50.8438C84.9479 51.7396 83.6458 52.4271 82.125 52.9062C80.625 53.3854 78.9479 53.625 77.0938 53.625C74.3646 53.625 72.0625 53.0833 70.1875 52C68.3125 50.9167 66.8958 49.5312 65.9375 47.8438C64.9792 46.1354 64.5 44.3646 64.5 42.5312H72.8125C72.8542 43.6562 73.0625 44.5417 73.4375 45.1875C73.8333 45.8125 74.3646 46.25 75.0312 46.5C75.6979 46.75 76.4375 46.875 77.25 46.875C78.0625 46.875 78.7292 46.7708 79.25 46.5625C79.7917 46.3333 80.1979 45.9896 80.4688 45.5312C80.7396 45.0521 80.875 44.5 80.875 43.875ZM103.469 5V53H94.7188V5H103.469ZM102.219 34.9375L99.8438 35C99.8438 32.625 100.083 30.4375 100.562 28.4375C101.042 26.4375 101.75 24.6979 102.688 23.2188C103.646 21.7396 104.792 20.5938 106.125 19.7812C107.479 18.9688 108.969 18.5625 110.594 18.5625C111.99 18.5625 113.26 18.8021 114.406 19.2812C115.552 19.7604 116.542 20.5104 117.375 21.5312C118.229 22.5521 118.885 23.9062 119.344 25.5938C119.802 27.2604 120.031 29.2812 120.031 31.6562V53H111.25V31.5938C111.25 30.1354 111.104 28.9896 110.812 28.1562C110.521 27.3229 110.083 26.7396 109.5 26.4062C108.917 26.0521 108.188 25.875 107.312 25.875C106.375 25.875 105.573 26.1042 104.906 26.5625C104.26 27.0208 103.74 27.6667 103.344 28.5C102.948 29.3125 102.656 30.2708 102.469 31.375C102.302 32.4792 102.219 33.6667 102.219 34.9375ZM204.125 33.1562H194.781L194.75 26.5312H202.688C203.938 26.5312 204.958 26.3229 205.75 25.9062C206.562 25.4688 207.156 24.8333 207.531 24C207.927 23.1458 208.125 22.1146 208.125 20.9062C208.125 19.5104 207.938 18.3958 207.562 17.5625C207.208 16.7083 206.635 16.0833 205.844 15.6875C205.073 15.2917 204.052 15.0938 202.781 15.0938H197.906V53H188.75V7.5H202.781C205.031 7.5 207.052 7.75 208.844 8.25C210.635 8.75 212.156 9.52083 213.406 10.5625C214.656 11.5833 215.615 12.875 216.281 14.4375C216.948 15.9792 217.281 17.8125 217.281 19.9375C217.281 21.8125 216.906 23.5417 216.156 25.125C215.406 26.7083 214.229 28.0104 212.625 29.0312C211.021 30.0312 208.948 30.5833 206.406 30.6875L204.125 33.1562ZM203.781 53H192.188L195.844 45.4375H203.781C205.01 45.4375 205.99 45.1771 206.719 44.6562C207.448 44.1354 207.979 43.4375 208.312 42.5625C208.667 41.6667 208.844 40.6458 208.844 39.5C208.844 38.2083 208.688 37.0833 208.375 36.125C208.083 35.1667 207.594 34.4375 206.906 33.9375C206.219 33.4167 205.292 33.1562 204.125 33.1562H196.25L196.312 26.5312H205.875L208.031 29.1562C210.469 29.0729 212.417 29.5417 213.875 30.5625C215.333 31.5625 216.375 32.875 217 34.5C217.646 36.1042 217.969 37.8125 217.969 39.625C217.969 42.5417 217.417 45 216.312 47C215.229 48.9792 213.635 50.4792 211.531 51.5C209.427 52.5 206.844 53 203.781 53ZM239.156 45.2188V29.5938C239.156 28.5729 239.031 27.7604 238.781 27.1562C238.552 26.5521 238.198 26.1146 237.719 25.8438C237.26 25.5521 236.698 25.4062 236.031 25.4062C235.281 25.4062 234.656 25.5625 234.156 25.875C233.656 26.1875 233.281 26.6354 233.031 27.2188C232.802 27.8021 232.688 28.5 232.688 29.3125H223.906C223.906 27.8542 224.188 26.4792 224.75 25.1875C225.312 23.875 226.135 22.7292 227.219 21.75C228.323 20.75 229.635 19.9688 231.156 19.4062C232.677 18.8438 234.385 18.5625 236.281 18.5625C238.531 18.5625 240.531 18.9479 242.281 19.7188C244.031 20.4688 245.417 21.6667 246.438 23.3125C247.458 24.9583 247.969 27.0938 247.969 29.7188V44.7812C247.969 46.6771 248.062 48.2188 248.25 49.4062C248.458 50.5938 248.76 51.6146 249.156 52.4688V53H240.344C239.948 52.0625 239.646 50.8958 239.438 49.5C239.25 48.0833 239.156 46.6562 239.156 45.2188ZM240.219 32.3438L240.25 37.5938H237.031C236.198 37.5938 235.469 37.7292 234.844 38C234.24 38.2708 233.729 38.6562 233.312 39.1562C232.896 39.6354 232.583 40.1979 232.375 40.8438C232.188 41.4896 232.094 42.1771 232.094 42.9062C232.094 43.7188 232.208 44.4062 232.438 44.9688C232.667 45.5312 233.01 45.9583 233.469 46.25C233.927 46.5417 234.469 46.6875 235.094 46.6875C236.052 46.6875 236.885 46.4896 237.594 46.0938C238.302 45.6979 238.823 45.2188 239.156 44.6562C239.51 44.0938 239.625 43.5729 239.5 43.0938L241.5 46.5C241.25 47.2708 240.906 48.0729 240.469 48.9062C240.052 49.7396 239.521 50.5104 238.875 51.2188C238.229 51.9271 237.427 52.5104 236.469 52.9688C235.531 53.4062 234.417 53.625 233.125 53.625C231.312 53.625 229.656 53.2083 228.156 52.375C226.656 51.5417 225.469 50.375 224.594 48.875C223.74 47.375 223.312 45.5938 223.312 43.5312C223.312 41.8229 223.583 40.2812 224.125 38.9062C224.688 37.5104 225.521 36.3333 226.625 35.375C227.729 34.3958 229.125 33.6458 230.812 33.125C232.5 32.6042 234.479 32.3438 236.75 32.3438H240.219ZM263.031 26.4062V53H254.25V19.1875H262.438L263.031 26.4062ZM261.719 34.9375L259.375 35C259.333 32.4583 259.573 30.1771 260.094 28.1562C260.635 26.1354 261.396 24.4167 262.375 23C263.375 21.5625 264.562 20.4688 265.938 19.7188C267.312 18.9479 268.865 18.5625 270.594 18.5625C271.906 18.5625 273.104 18.7917 274.188 19.25C275.292 19.7083 276.24 20.4375 277.031 21.4375C277.823 22.4375 278.438 23.7604 278.875 25.4062C279.312 27.0521 279.531 29.0833 279.531 31.5V53H270.75V31.4375C270.75 29.9792 270.604 28.8542 270.312 28.0625C270.021 27.25 269.583 26.6875 269 26.375C268.438 26.0417 267.708 25.875 266.812 25.875C265.979 25.875 265.24 26.1042 264.594 26.5625C263.948 27.0208 263.406 27.6667 262.969 28.5C262.552 29.3125 262.229 30.2708 262 31.375C261.792 32.4792 261.698 33.6667 261.719 34.9375ZM294.688 4.96875V53H285.938V4.96875H294.688ZM312.469 19.1875L300.562 36L293.406 44.0312L290.312 37.375L295.812 29.3438L302.031 19.1875H312.469ZM303.344 53L295.969 37.4688L302 31.9062L313.375 53H303.344Z" fill="#333333"/>
<path d="M157.438 0.25V9.53125H152.75V0.25H157.438ZM156.781 51.2812V59.75H152.094V51.2812H156.781ZM158.531 41.0312C158.531 39.8646 158.375 38.875 158.062 38.0625C157.75 37.25 157.26 36.5208 156.594 35.875C155.927 35.2292 155.031 34.6146 153.906 34.0312C151.615 32.9896 149.594 31.875 147.844 30.6875C146.094 29.5 144.729 28.0312 143.75 26.2812C142.792 24.5104 142.312 22.2708 142.312 19.5625C142.312 16.9583 142.833 14.7083 143.875 12.8125C144.938 10.9167 146.406 9.44792 148.281 8.40625C150.156 7.36458 152.333 6.84375 154.812 6.84375C156.688 6.84375 158.385 7.17708 159.906 7.84375C161.448 8.48958 162.771 9.44792 163.875 10.7188C165 11.9688 165.854 13.5104 166.438 15.3438C167.042 17.1562 167.344 19.2292 167.344 21.5625H158.594C158.594 20.3333 158.5 19.25 158.312 18.3125C158.125 17.375 157.854 16.5938 157.5 15.9688C157.146 15.3438 156.729 14.875 156.25 14.5625C155.771 14.25 155.25 14.0938 154.688 14.0938C153.854 14.0938 153.167 14.3438 152.625 14.8438C152.083 15.3229 151.688 15.9688 151.438 16.7812C151.188 17.5938 151.062 18.5104 151.062 19.5312C151.062 20.5729 151.208 21.4896 151.5 22.2812C151.812 23.0521 152.312 23.7604 153 24.4062C153.708 25.0312 154.625 25.6771 155.75 26.3438C158.062 27.4062 160.073 28.5521 161.781 29.7812C163.51 30.9896 164.854 32.4792 165.812 34.25C166.792 36 167.281 38.2396 167.281 40.9688C167.281 43.6562 166.74 45.9479 165.656 47.8438C164.573 49.7396 163.062 51.1875 161.125 52.1875C159.208 53.1667 156.958 53.6562 154.375 53.6562C152.75 53.6562 151.135 53.4062 149.531 52.9062C147.927 52.3854 146.469 51.5521 145.156 50.4062C143.844 49.2396 142.792 47.7083 142 45.8125C141.229 43.8958 140.844 41.5208 140.844 38.6875H149.594C149.594 40.1875 149.729 41.4375 150 42.4375C150.271 43.4167 150.625 44.1979 151.062 44.7812C151.5 45.3646 152.01 45.7812 152.594 46.0312C153.177 46.2812 153.771 46.4062 154.375 46.4062C155.333 46.4062 156.115 46.1667 156.719 45.6875C157.323 45.2083 157.771 44.5729 158.062 43.7812C158.375 42.9688 158.531 42.0521 158.531 41.0312Z" fill="#007BFF"/>
</svg>
